<svg xmlns="http://www.w3.org/2000/svg" width="87.366" height="149.228" viewBox="0 0 87.366 149.228">
  <g id="Group_6581" data-name="Group 6581" transform="translate(-77.279 70)">
    <g id="Group_3" data-name="Group 3" transform="translate(82.658 -70)">
      <path id="Path_1" data-name="Path 1" d="M-225.3-686.8a7.467,7.467,0,0,1-.283,2.045,7.329,7.329,0,0,1-1.18,2.419,7.166,7.166,0,0,1-.9,1.015,7.506,7.506,0,0,1-5.179,2.063,7.623,7.623,0,0,1-1.227-.1,7.543,7.543,0,0,1-6.032-5.4,5.579,5.579,0,0,1-.163-.709,7.419,7.419,0,0,1-.121-1.336,7.54,7.54,0,0,1,4.25-6.789,7.524,7.524,0,0,1,2.066-.653l.026-.007a7.31,7.31,0,0,1,1.2-.093,7.512,7.512,0,0,1,5.179,2.059A7.508,7.508,0,0,1-225.3-686.8Z" transform="translate(257.082 710.916)" fill="#e4122c"/>
      <g id="Group_1" data-name="Group 1">
        <path id="Path_2" data-name="Path 2" d="M-222.1-700.146v8.606a1.322,1.322,0,0,1-.39.941,1.322,1.322,0,0,1-.941.391h-12.879v12.886a1.328,1.328,0,0,1-.388.939,1.327,1.327,0,0,1-.941.39h-8.606a1.329,1.329,0,0,1-1.329-1.329v-18.518a5.613,5.613,0,0,1,1.647-3.985h0a5.632,5.632,0,0,1,3.983-1.647h18.511a1.321,1.321,0,0,1,.941.391A1.318,1.318,0,0,1-222.1-700.146Z" transform="translate(247.57 701.473)" fill="#e4122c"/>
      </g>
      <g id="Group_2" data-name="Group 2" transform="translate(0.139)">
        <path id="Path_3" data-name="Path 3" d="M-171.041-695.938v24.787q0,.976-.049,1.94c-.023.5-.06,1-.1,1.5a38.078,38.078,0,0,1-2.772,11.258l0,.007a38.339,38.339,0,0,1-8.253,12.338h-.086v.086a38.168,38.168,0,0,1-26.748,11.171l-.049,0a.326.326,0,0,1-.049,0h-.386a.325.325,0,0,1-.049,0l-.049,0a38.5,38.5,0,0,1-5.755-.472,37.892,37.892,0,0,1-6.785-1.729,38.307,38.307,0,0,1-14.211-8.971v-.086h-.086a38.3,38.3,0,0,1-8.253-12.338l0-.007a38.078,38.078,0,0,1-2.772-11.258v0l0-.03v-.009a1.178,1.178,0,0,1-.009-.13,1.34,1.34,0,0,1,.39-.941,1.335,1.335,0,0,1,.941-.39h8.653a1.335,1.335,0,0,1,.941.39,1.324,1.324,0,0,1,.376.795l0,.014.037.3a26.858,26.858,0,0,0,4.127,11.258l0,.007a27.14,27.14,0,0,0,9.863,9.108,27.035,27.035,0,0,0,6.785,2.551,27.151,27.151,0,0,0,6.046.678,27.005,27.005,0,0,0,22.691-12.338l0-.007a26.823,26.823,0,0,0,4.124-11.258c.063-.5.114-1,.146-1.5q.073-.958.072-1.936v-13.423a5.625,5.625,0,0,0-1.65-3.985,5.617,5.617,0,0,0-3.985-1.65h-21.4v0h-4.717a1.33,1.33,0,0,1-1.329-1.283v-8.655a1.336,1.336,0,0,1,.388-.937,1.329,1.329,0,0,1,.941-.391h37.39a5.637,5.637,0,0,1,3.985,1.647A5.607,5.607,0,0,1-171.041-695.938Z" transform="translate(247.51 701.473)" fill="#e4122c"/>
        <path id="Path_4" data-name="Path 4" d="M-233.685-697.217v.093l0-.047Z" transform="translate(265.805 707.106)" fill="#e4122c"/>
      </g>
    </g>
    <g id="Group_9" data-name="Group 9" transform="translate(77.279 11.006)">
      <g id="Group_4" data-name="Group 4" transform="translate(0.018 0)">
        <ellipse id="Ellipse_1" data-name="Ellipse 1" cx="3.432" cy="3.432" rx="3.432" ry="3.432" transform="translate(72.766 28.852)" fill="#e4122c"/>
        <ellipse id="Ellipse_2" data-name="Ellipse 2" cx="3.432" cy="3.432" rx="3.432" ry="3.432" transform="translate(45.349 28.852)" fill="#e4122c"/>
        <ellipse id="Ellipse_3" data-name="Ellipse 3" cx="3.432" cy="3.432" rx="3.432" ry="3.432" transform="translate(36.812 28.852)" fill="#e4122c"/>
        <ellipse id="Ellipse_4" data-name="Ellipse 4" cx="3.432" cy="3.432" rx="3.432" ry="3.432" transform="translate(15.295 28.852)" fill="#e4122c"/>
        <path id="Path_5" data-name="Path 5" d="M-124.321-687.8v.086c0,.137,0,.267-.009.4a13.638,13.638,0,0,1-.5,3.223l.009.01-.009.026a13.072,13.072,0,0,1-1.28,3.032l-.021.04-.03.054a13.651,13.651,0,0,1-4.842,4.854l-.03.016a13.515,13.515,0,0,1-5.89,1.812h-14.859a10.107,10.107,0,0,1-3.037-.574h0a10.191,10.191,0,0,1-3.332-1.963l-.026-.023-.026-.021c-.1.091-.209.182-.321.275-.03.025-.06.051-.091.072-.165.13-.339.263-.507.383-.072.051-.144.1-.216.146s-.156.109-.239.156a2.222,2.222,0,0,1-.207.128c-.144.086-.288.167-.432.242a9.636,9.636,0,0,1-.9.423c-.074.03-.149.061-.23.091s-.153.058-.235.086l0,.007c-.112.04-.225.079-.346.112-.093.03-.193.056-.286.083a.244.244,0,0,1-.074.021c-.1.03-.188.054-.281.075-.111.028-.223.056-.337.077a.824.824,0,0,0-.107.021c-.128.023-.251.044-.376.065s-.246.04-.369.051l-.035,0a1.841,1.841,0,0,1-.193.019.4.4,0,0,1-.091.009c-.086.009-.172.014-.258.021l-.053,0c-.077.007-.153.011-.235.016h-7.477a10.107,10.107,0,0,1-3.037-.574,10.2,10.2,0,0,1-3.341-1.968l-.028-.023-.019-.016c-.033.03-.065.061-.1.088l-.13.107c-.2.174-.414.339-.63.49-.074.053-.146.1-.218.151-.184.128-.374.246-.567.358a1.415,1.415,0,0,1-.137.081,7.867,7.867,0,0,1-.713.365c-.107.049-.218.1-.328.144-.16.07-.323.137-.493.193-.058.023-.121.044-.181.065-.091.035-.184.061-.274.089-.144.044-.293.086-.444.127l-.121.031c-.209.051-.423.1-.639.132-.1.019-.211.037-.323.051a.179.179,0,0,1-.06.01,1.738,1.738,0,0,1-.214.03.354.354,0,0,1-.053.007l-.123.012c-.128.014-.26.023-.393.032l-.042,0c-.081.007-.163.011-.239.016h-16.567c-.174,0-.351,0-.523-.014-.156-.007-.309-.021-.458-.033l-.058,0c-.158-.019-.318-.037-.474-.061-.081-.012-.158-.023-.237-.039s-.132-.021-.2-.032c-.035-.007-.074-.016-.112-.023s-.086-.019-.13-.028-.116-.028-.172-.039l-.181-.044-.035-.009-.07-.018,0,0c-.121-.032-.244-.069-.36-.1s-.225-.072-.339-.111l-.026-.01h0a10.383,10.383,0,0,1-1.782-.834c-.081-.049-.163-.1-.239-.146-.156-.1-.314-.2-.462-.309-.079-.054-.153-.111-.225-.165-.1-.077-.2-.154-.293-.228a10.191,10.191,0,0,1-.767-.69c-.081-.079-.158-.163-.239-.244l-.016-.016a10.073,10.073,0,0,1-2.175-3.569h.007a10.535,10.535,0,0,1-.386-1.4c-.028-.16-.058-.321-.084-.483-.014-.1-.026-.186-.037-.279l-.007-.053-.028-.309c-.023-.276-.035-.555-.035-.839v-.021a.547.547,0,0,1,.009-.1v-.312c-.007.14-.009.277-.009.414v-4.247a.793.793,0,0,1,.23-.562.816.816,0,0,1,.481-.23c.028,0,.053,0,.081,0h5.184c.028,0,.053,0,.081,0a.816.816,0,0,1,.481.23.816.816,0,0,1,.225.458c0,.032,0,.067,0,.1v4.252a3.379,3.379,0,0,0,3.383,3.378h16c.07,0,.139,0,.209,0h.037c.06,0,.114,0,.17,0a3.525,3.525,0,0,0,.651-.1,1.518,1.518,0,0,0,.163-.049c.053-.016.1-.033.156-.051.1-.04.2-.082.3-.13a.9.9,0,0,0,.144-.074,1.262,1.262,0,0,0,.144-.081,1,1,0,0,0,.135-.086,2.921,2.921,0,0,0,.262-.195,2.961,2.961,0,0,0,.239-.218c.035-.037.072-.077.112-.114.1-.116.2-.232.281-.358l.081-.125a3.094,3.094,0,0,0,.33-.69.865.865,0,0,0,.049-.151c.026-.09.051-.179.067-.27l.007-.032a2.672,2.672,0,0,0,.044-.3v-.012a.636.636,0,0,0,.009-.1l.007-.062c0,.027,0,.058,0,.086v-7.1a.3.3,0,0,1,.009-.081v-.012a.623.623,0,0,1,.028-.109.509.509,0,0,1,.023-.072.74.74,0,0,1,.172-.258.806.806,0,0,1,.479-.23c.028,0,.053,0,.081,0h5.188c.025,0,.053,0,.081,0a.806.806,0,0,1,.479.23.444.444,0,0,1,.081.1.85.85,0,0,1,.058.093.071.071,0,0,1,.016.037l0,0c.014.03.026.065.04.1a.688.688,0,0,1,.026.123v.007c0,.044,0,.082,0,.123v6.606c0,.06,0,.116,0,.174s0,.114,0,.175l.007.062v.023a3.409,3.409,0,0,0,.058.409l0,0a3.252,3.252,0,0,0,.46,1.138,1,1,0,0,0,.086.126,2.133,2.133,0,0,0,.139.186c.044.061.1.116.144.172l.007.007c.035.037.067.072.1.107a3.363,3.363,0,0,0,2.172.969c.067,0,.135,0,.207,0h.049c.053,0,.1,0,.16,0h6.771c.053,0,.1-.007.16-.012a3.359,3.359,0,0,0,2.042-.974,3.345,3.345,0,0,0,.981-2.147v0c.007-.077.009-.156.009-.237v-6.812a.71.71,0,0,1,.037-.233.759.759,0,0,1,.2-.33.787.787,0,0,1,.56-.23h5.258a.8.8,0,0,1,.479.23.8.8,0,0,1,.172.258.448.448,0,0,1,.023.072.776.776,0,0,1,.037.233v7.068c0-.03,0-.058,0-.086a3.383,3.383,0,0,0,3.181,3.2c.065,0,.135,0,.2,0h.028l.03,0c.051,0,.1,0,.149,0h13.33a6.748,6.748,0,0,0,4.786-1.984,6.747,6.747,0,0,0,.472-.523c.039-.046.074-.093.111-.144l.021-.026.012-.019c.046-.056.088-.116.132-.177.058-.081.114-.165.167-.254s.112-.172.163-.262l.016-.03a1.64,1.64,0,0,0,.091-.165c.037-.068.072-.132.1-.2.028-.049.049-.1.07-.144l0-.007c.049-.1.091-.2.132-.307.025-.06.051-.119.072-.181s.044-.123.065-.186l0-.007c.046-.144.088-.288.128-.434l.014-.051.046-.2c.012-.053.023-.107.033-.16s.021-.1.028-.151a2.9,2.9,0,0,0,.044-.311,2.2,2.2,0,0,0,.033-.325,4.881,4.881,0,0,0,.026-.525c0-.1,0-.211-.009-.313l0-.047v-.035c0-.125-.016-.249-.033-.374-.009-.089-.021-.174-.035-.26a.615.615,0,0,0-.019-.1.064.064,0,0,0-.007-.035.287.287,0,0,0-.007-.063l-.014-.065a1.175,1.175,0,0,0-.023-.125l0-.012c-.012-.058-.026-.114-.039-.167l-.007-.03-.026-.1,0-.007a.283.283,0,0,0-.016-.072,1.3,1.3,0,0,0-.046-.154l0-.014-.023-.065a1.159,1.159,0,0,0-.039-.128l-.012-.03a.276.276,0,0,0-.021-.058l-.012-.038-.019-.053-.063-.156-.007-.016a.712.712,0,0,0-.035-.09c-.042-.1-.088-.207-.137-.3l0,0c-.042-.1-.091-.193-.144-.291l-.012-.023a2.2,2.2,0,0,0-.116-.2c-.04-.07-.081-.135-.123-.2l-.009-.016c-.023-.035-.049-.072-.074-.107a.841.841,0,0,0-.049-.077c-.042-.065-.088-.128-.137-.191l-.019-.027c-.016-.021-.03-.04-.049-.061a.36.36,0,0,0-.049-.062l-.016-.021a.271.271,0,0,0-.046-.058l-.023-.028a1.548,1.548,0,0,0-.112-.139c-.074-.086-.153-.177-.237-.26l-.1-.109c-.086-.086-.177-.174-.27-.251-.058-.054-.114-.1-.172-.151a5.713,5.713,0,0,0-.534-.4,5.326,5.326,0,0,0-.572-.35,2.768,2.768,0,0,0-.288-.149l-.936-.374-.026-.007c-.072-.021-.139-.042-.211-.06l-.139-.037c-.088-.024-.179-.044-.272-.063l-.023,0c-.077-.016-.149-.03-.223-.044l-.086-.012-.016,0c-.084-.014-.167-.023-.251-.033s-.17-.019-.253-.023c-.132-.014-.265-.018-.4-.023h-.026c-.033,0-.067,0-.1,0h-2.121a.887.887,0,0,1-.139-.01h0a1.062,1.062,0,0,1-.906-.906v0a1.322,1.322,0,0,1-.009-.137v-4.61a1.289,1.289,0,0,1,.009-.137v0a1.06,1.06,0,0,1,.909-.906h0a1.215,1.215,0,0,1,.135-.007h2.249c.263,0,.52.007.778.026a13.455,13.455,0,0,1,5.972,1.812l.03.019a13.6,13.6,0,0,1,4.208,3.871,11.782,11.782,0,0,1,.66,1.029l0,0,.023.042a13.4,13.4,0,0,1,1.7,5.14c.016.114.03.228.037.346.019.207.035.414.044.618S-124.321-688-124.321-687.8Z" transform="translate(211.669 701.298)" fill="#e4122c"/>
      </g>
      <g id="Group_8" data-name="Group 8" transform="translate(0 41.694)">
        <g id="Group_6" data-name="Group 6" transform="translate(64.977 0.114)">
          <g id="Group_5" data-name="Group 5">
            <path id="Path_6" data-name="Path 6" d="M-161.529-668.511a.518.518,0,0,1-.016-.132,11.35,11.35,0,0,0-.6-3.028c-.014-.035-.026-.068-.04-.107-.123-.337-.262-.667-.409-.985a11.164,11.164,0,0,0-1.685-2.542,12.478,12.478,0,0,0-.881-.906l-.1-.063-.044-.047v-.007a10.888,10.888,0,0,0-2.563-1.684,9.692,9.692,0,0,0-1.011-.418,11.185,11.185,0,0,0-2.839-.613c-.279-.021-.567-.035-.9-.035s-.618.014-.906.035a10.9,10.9,0,0,0-2.767.593l-.265.093-.165.053v-4.322l0-.044a.722.722,0,0,0-.2-.418.738.738,0,0,0-.444-.216h-5.686a.745.745,0,0,0-.439.216.709.709,0,0,0-.211.513v14.647l.009.047v.462a10.949,10.949,0,0,0,.625,3.141l.026.072a10.931,10.931,0,0,0,1.15,2.293,10.69,10.69,0,0,0,1.9,2.2,10.821,10.821,0,0,0,3.45,2.094c.086.032.17.067.258.1a10.846,10.846,0,0,0,3,.6l.242.009c.139,0,.288.012.437.012h.028c.118,0,.237,0,.353-.012l.109,0h.123a.259.259,0,0,1,.058,0l.156-.014c.1,0,.188-.012.293-.023l.042,0a.391.391,0,0,0,.072,0l.1-.014.177-.021.091-.016.355-.056c.237-.037.465-.088.7-.146l.367-.1c.067-.019.137-.039.2-.06l.181-.058c.051-.019.107-.035.156-.056l.186-.068c.179-.063.472-.174.644-.248.093-.044.186-.086.277-.119.258-.123.532-.262.785-.406.035-.021.072-.042.144-.086.242-.14.437-.265.618-.393l.177-.123.06-.042c.249-.177.474-.351.69-.532l.135-.114.042-.039v-.026l.123-.084.037-.035a11.1,11.1,0,0,0,2.942-4.387l.021-.067a10.848,10.848,0,0,0,.63-3.058.5.5,0,0,1,.012-.13c.009-.184.009-.365.009-.546S-161.525-668.346-161.529-668.511Zm-5.618.8v.046a5.467,5.467,0,0,1-1.568,3.522.147.147,0,0,1-.056.047,5.455,5.455,0,0,1-3.515,1.578c-.109,0-.223.009-.332.009s-.23,0-.335-.009a5.407,5.407,0,0,1-3.448-1.505c-.042-.037-.081-.079-.123-.119l-.063-.067a5.486,5.486,0,0,1-1.515-3.5v-.558a5.509,5.509,0,0,1,1.51-3.5l.191-.191a5.478,5.478,0,0,1,3.783-1.51,5.464,5.464,0,0,1,3.848,1.582l.077.077a.221.221,0,0,1,.04.042,5.432,5.432,0,0,1,1.508,3.46v.044a2.7,2.7,0,0,1,.009.279C-167.138-667.893-167.138-667.8-167.148-667.707Z" transform="translate(183.712 683.305)" fill="#e4122c"/>
            <path id="Path_7" data-name="Path 7" d="M-161.529-668.511a.518.518,0,0,1-.016-.132,11.35,11.35,0,0,0-.6-3.028c-.014-.035-.026-.068-.04-.107-.123-.337-.262-.667-.409-.985a11.164,11.164,0,0,0-1.685-2.542,12.478,12.478,0,0,0-.881-.906l-.1-.063-.044-.047v-.007a10.888,10.888,0,0,0-2.563-1.684,9.692,9.692,0,0,0-1.011-.418,11.185,11.185,0,0,0-2.839-.613c-.279-.021-.567-.035-.9-.035s-.618.014-.906.035a10.9,10.9,0,0,0-2.767.593l-.265.093-.165.053v-4.322l0-.044a.722.722,0,0,0-.2-.418.738.738,0,0,0-.444-.216h-5.686a.745.745,0,0,0-.439.216.709.709,0,0,0-.211.513v14.647l.009.047v.462a10.949,10.949,0,0,0,.625,3.141l.026.072a10.931,10.931,0,0,0,1.15,2.293,10.69,10.69,0,0,0,1.9,2.2,10.821,10.821,0,0,0,3.45,2.094c.086.032.17.067.258.1a10.846,10.846,0,0,0,3,.6l.242.009c.139,0,.288.012.437.012h.028c.118,0,.237,0,.353-.012l.109,0h.123a.259.259,0,0,1,.058,0l.156-.014c.1,0,.188-.012.293-.023l.042,0a.391.391,0,0,0,.072,0l.1-.014.177-.021.091-.016.355-.056c.237-.037.465-.088.7-.146l.367-.1c.067-.019.137-.039.2-.06l.181-.058c.051-.019.107-.035.156-.056l.186-.068c.179-.063.472-.174.644-.248.093-.044.186-.086.277-.119.258-.123.532-.262.785-.406.035-.021.072-.042.144-.086.242-.14.437-.265.618-.393l.177-.123.06-.042c.249-.177.474-.351.69-.532l.135-.114.042-.039v-.026l.123-.084.037-.035a11.1,11.1,0,0,0,2.942-4.387l.021-.067a10.848,10.848,0,0,0,.63-3.058.5.5,0,0,1,.012-.13c.009-.184.009-.365.009-.546S-161.525-668.346-161.529-668.511Zm-5.523.8v.051a5.594,5.594,0,0,1-1.6,3.578.2.2,0,0,1-.056.051h0a5.575,5.575,0,0,1-3.581,1.608l-.332,0-.339,0a5.543,5.543,0,0,1-3.506-1.534l-.123-.121-.067-.067a5.586,5.586,0,0,1-1.536-3.566v-.562a5.651,5.651,0,0,1,1.536-3.567l.19-.19a5.567,5.567,0,0,1,3.845-1.536,5.538,5.538,0,0,1,3.915,1.613l.065.067a.264.264,0,0,1,.051.051,5.587,5.587,0,0,1,1.536,3.522v.039c.007.088.007.186.007.283S-167.045-667.8-167.052-667.707Z" transform="translate(183.712 683.305)" fill="#e4122c"/>
          </g>
        </g>
        <g id="Group_7" data-name="Group 7" transform="translate(53.059 0.115)">
          <ellipse id="Ellipse_5" data-name="Ellipse 5" cx="3.577" cy="3.577" rx="3.577" ry="3.577" fill="#e4122c"/>
        </g>
        <path id="Path_8" data-name="Path 8" d="M-190.714-682.617v15.312a7.737,7.737,0,0,1-.037.813c0,.093-.014.174-.021.258l-.026.246c-.014.084-.021.165-.035.244-.007.04-.016.082-.021.123s-.009.077-.016.114a1.947,1.947,0,0,1-.042.23c-.014.088-.035.172-.051.258l-.072.307-.021.072c-.06.225-.123.442-.2.66l-.009.009-.007.046-.1.262a2.559,2.559,0,0,1-.112.284l-.021.047c-.058.144-.118.288-.181.428l-.021.026.009.026-.014,0c-.026.058-.051.114-.084.172-.056.107-.107.212-.16.314-.046.084-.091.17-.139.249l-.03.051c-.077.139-.16.274-.251.406a4.552,4.552,0,0,1-.258.388,3.452,3.452,0,0,1-.207.277l-.03.046c-.079.109-.13.177-.193.249a9.776,9.776,0,0,1-.73.809A10.411,10.411,0,0,1-196.36-658a10.553,10.553,0,0,1-1.338.583,10.406,10.406,0,0,1-2.918.588h-1.176a10.536,10.536,0,0,1-2.893-.576,10.573,10.573,0,0,1-6.422-6.413,10.48,10.48,0,0,1-.541-2.423c-.012-.123-.021-.242-.028-.362a.727.727,0,0,1,.207-.4.727.727,0,0,1,.444-.211.307.307,0,0,1,.067,0h5.507a.33.33,0,0,1,.067,0,.745.745,0,0,1,.446.211.74.74,0,0,1,.2.376l.009.042a3.631,3.631,0,0,0,3.541,2.888,3.575,3.575,0,0,0,2.554-1.057,3.579,3.579,0,0,0,1.062-2.558v-15.31a.74.74,0,0,1,.212-.521.77.77,0,0,1,.448-.216h5.542a.784.784,0,0,1,.448.216.759.759,0,0,1,.207.423C-190.719-682.685-190.714-682.652-190.714-682.617Z" transform="translate(211.677 683.354)" fill="#e4122c"/>
        <path id="Path_9" data-name="Path 9" d="M-190.714-682.617v15.312a7.737,7.737,0,0,1-.037.813c0,.093-.014.174-.021.258l-.026.246c-.014.084-.021.165-.035.244-.007.04-.016.082-.021.123s-.009.077-.016.114a1.947,1.947,0,0,1-.042.23c-.014.088-.035.172-.051.258l-.072.307-.021.072c-.06.225-.123.442-.2.66l-.009.009-.007.046-.1.262a2.559,2.559,0,0,1-.112.284l-.021.047c-.058.144-.118.288-.181.428l-.021.026.009.026-.014,0c-.026.058-.051.114-.084.172-.056.107-.107.212-.16.314-.046.084-.091.17-.139.249l-.03.051c-.077.139-.16.274-.251.406a4.552,4.552,0,0,1-.258.388,3.452,3.452,0,0,1-.207.277l-.03.046c-.079.109-.13.177-.193.249a9.776,9.776,0,0,1-.73.809A10.411,10.411,0,0,1-196.36-658a10.553,10.553,0,0,1-1.338.583,10.406,10.406,0,0,1-2.918.588h-1.176a10.536,10.536,0,0,1-2.893-.576,10.573,10.573,0,0,1-6.422-6.413,10.48,10.48,0,0,1-.541-2.423c-.012-.123-.021-.242-.028-.362a.727.727,0,0,1,.207-.4.727.727,0,0,1,.444-.211.307.307,0,0,1,.067,0h5.507a.33.33,0,0,1,.067,0,.745.745,0,0,1,.446.211.74.74,0,0,1,.2.376l.009.042a3.631,3.631,0,0,0,3.541,2.888,3.575,3.575,0,0,0,2.554-1.057,3.579,3.579,0,0,0,1.062-2.558v-15.31a.74.74,0,0,1,.212-.521.77.77,0,0,1,.448-.216h5.542a.784.784,0,0,1,.448.216.759.759,0,0,1,.207.423C-190.719-682.685-190.714-682.652-190.714-682.617Z" transform="translate(211.677 683.354)" fill="#e4122c"/>
        <path id="Path_10" data-name="Path 10" d="M-178.332-671.069a10.856,10.856,0,0,0-.613-3.053c-.021-.062-.042-.128-.067-.19-.123-.335-.249-.63-.383-.909a11.119,11.119,0,0,0-1.768-2.649c-.272-.3-.546-.583-.813-.825l-.1-.076-.04-.047v0a11.457,11.457,0,0,0-2.584-1.7c-.293-.139-.606-.27-1.02-.427a11.165,11.165,0,0,0-2.865-.614c-.358-.023-.641-.037-.913-.037-.253,0-.541.014-.9.037a11.069,11.069,0,0,0-2.8.6,11.335,11.335,0,0,0-3.773,2.242,9.519,9.519,0,0,0-.853.85,11.317,11.317,0,0,0-1.029,1.331,11.232,11.232,0,0,0-1.125,2.221l-.084.237A11.218,11.218,0,0,0-200.68-671l0,.5c0,.021,0,.042,0,.088l0,.067.007.034v.465a11.389,11.389,0,0,0,.627,3.165l.033.077a10.856,10.856,0,0,0,1.164,2.314,10.891,10.891,0,0,0,1.9,2.219,11.054,11.054,0,0,0,3.743,2.217,10.068,10.068,0,0,0,2.849.607l.181.007c.17.009.342.018.537.018h.009c.046,0,.088,0,.139,0l.321-.014.081,0a.347.347,0,0,1,.1-.012h0c.146-.009.291-.019.476-.04a.364.364,0,0,0,.088-.012l.081,0c.072-.009.139-.016.211-.03l.077-.012c.123-.016.242-.035.362-.06a6.809,6.809,0,0,0,.7-.144l.156-.037c.2-.056.551-.151.767-.233l.207-.072c.181-.067.36-.135.541-.216.118-.047.232-.1.356-.149.016-.012.386-.207.386-.207v.567a.736.736,0,0,0,.734.737h4.8a.737.737,0,0,0,.52-.216.767.767,0,0,0,.211-.444v-11.125A.466.466,0,0,1-178.332-671.069Zm-5.646.943,0,.047a5.455,5.455,0,0,1-.69,2.375,5.531,5.531,0,0,1-.888,1.181l-.056.051a5.486,5.486,0,0,1-3.548,1.585c-.107,0-.221.009-.339.009s-.223-.005-.33-.009a5.477,5.477,0,0,1-3.476-1.517c-.042-.039-.086-.081-.123-.118a5.537,5.537,0,0,1-1.592-3.6v-.214a.2.2,0,0,1-.007-.065.277.277,0,0,1,.007-.074v-.209a5.561,5.561,0,0,1,1.52-3.532,1.053,1.053,0,0,1,.128-.125.585.585,0,0,1,.067-.065,5.472,5.472,0,0,1,3.806-1.527,5.494,5.494,0,0,1,3.885,1.592l0,.007a1.116,1.116,0,0,1,.116.119,5.46,5.46,0,0,1,1.517,3.485.167.167,0,0,0,0,.047,2.276,2.276,0,0,1,.012.283A2.26,2.26,0,0,1-183.979-670.126Z" transform="translate(226.222 685.679)" fill="#e4122c"/>
        <path id="Path_11" data-name="Path 11" d="M-181.956-664.3v.99a.742.742,0,0,1-.207.437.731.731,0,0,1-.507.207H-188.1a.718.718,0,0,1-.716-.716v-.832c0-.025,0-.056,0-.086v-6.847l0-7.068a.764.764,0,0,1,.014-.149.712.712,0,0,1,.1-.253.644.644,0,0,1,.091-.107.71.71,0,0,1,.434-.207.363.363,0,0,1,.072,0h5.428a.339.339,0,0,1,.072,0,.709.709,0,0,1,.434.207.7.7,0,0,1,.2.411.641.641,0,0,1,0,.1v.072Z" transform="translate(241.928 689.197)" fill="#e4122c"/>
      </g>
    </g>
  </g>
</svg>
