<svg xmlns="http://www.w3.org/2000/svg" width="102" height="31.718" viewBox="0 0 102 31.718">
  <g id="Group_6587" data-name="Group 6587" transform="translate(333.636 -48.04)">
    <g id="Group_6565" data-name="Group 6565" transform="translate(-252.834 48.04)">
      <rect id="Rectangle_7479" data-name="Rectangle 7479" width="3.505" height="20.154" transform="translate(0 0.047)" fill="#aeaeb2"/>
      <rect id="Rectangle_7480" data-name="Rectangle 7480" width="3.504" height="20.154" transform="translate(17.694 11.564)" fill="#aeaeb2"/>
      <path id="Path_10063" data-name="Path 10063" d="M-179.555,55.974v6.961h0v.048h-10.482V48.04l3.5,2.023v9.415h3.518v-3.5Z" transform="translate(195.43 -48.04)" fill="#aeaeb2"/>
      <path id="Path_10064" data-name="Path 10064" d="M-190.038,82.991V76.03h0v-.048h10.482V90.924l-3.5-2.023V79.486h-3.518v3.5Z" transform="translate(195.43 -59.21)" fill="#aeaeb2"/>
    </g>
    <g id="Group_6566" data-name="Group 6566" transform="translate(-333.636 56.777)">
      <path id="Path_10065" data-name="Path 10065" d="M-329.313,63.736a.466.466,0,0,0,.263.107.458.458,0,0,0,.254-.107,1.114,1.114,0,0,0,.254-.258.477.477,0,0,0,.107-.259.606.606,0,0,0-.218-.4.654.654,0,0,0-.4-.227.67.67,0,0,0-.4.227.6.6,0,0,0-.223.4.461.461,0,0,0,.107.263A1.142,1.142,0,0,0-329.313,63.736Z" transform="translate(332.052 -62.596)" fill="#aeaeb2"/>
      <path id="Path_10066" data-name="Path 10066" d="M-332.91,69.482a3.618,3.618,0,0,0,1.26.164h8.283V64.035h-1.06v4.418h-1.968V65.461h-1.06v2.992h-1.915V65.461h-2.28a3.619,3.619,0,0,0-1.26.164.964.964,0,0,0-.57.6,4.215,4.215,0,0,0-.156,1.327,4.208,4.208,0,0,0,.156,1.332A.963.963,0,0,0-332.91,69.482Zm.4-2.436a.368.368,0,0,1,.112-.3.543.543,0,0,1,.352-.094h1.612v1.8h-1.612a.543.543,0,0,1-.352-.093.368.368,0,0,1-.112-.3Z" transform="translate(333.636 -63.171)" fill="#aeaeb2"/>
      <path id="Path_10067" data-name="Path 10067" d="M-331.791,63.736a.465.465,0,0,0,.263.107.458.458,0,0,0,.254-.107,1.116,1.116,0,0,0,.254-.258.482.482,0,0,0,.107-.259.607.607,0,0,0-.219-.4.651.651,0,0,0-.4-.227.668.668,0,0,0-.4.227.6.6,0,0,0-.223.4.468.468,0,0,0,.107.263A1.157,1.157,0,0,0-331.791,63.736Z" transform="translate(333.043 -62.596)" fill="#aeaeb2"/>
      <path id="Path_10068" data-name="Path 10068" d="M-321.139,75.453a.479.479,0,0,0,.107-.259.6.6,0,0,0-.219-.4.648.648,0,0,0-.4-.227.667.667,0,0,0-.4.227.6.6,0,0,0-.223.4.465.465,0,0,0,.107.263,1.133,1.133,0,0,0,.254.254.466.466,0,0,0,.262.107.461.461,0,0,0,.254-.107A1.113,1.113,0,0,0-321.139,75.453Z" transform="translate(329.092 -67.383)" fill="#aeaeb2"/>
      <path id="Path_10069" data-name="Path 10069" d="M-324.524,74.8a.6.6,0,0,0-.223.4.466.466,0,0,0,.106.263,1.157,1.157,0,0,0,.254.254.469.469,0,0,0,.263.107.461.461,0,0,0,.254-.107,1.114,1.114,0,0,0,.254-.258.479.479,0,0,0,.107-.259.6.6,0,0,0-.219-.4.648.648,0,0,0-.4-.227A.662.662,0,0,0-324.524,74.8Z" transform="translate(330.083 -67.383)" fill="#aeaeb2"/>
      <path id="Path_10070" data-name="Path 10070" d="M-303.872,64.035h-1.06v4.418H-306.9V66.707a1.236,1.236,0,0,0-.405-1.043,2.241,2.241,0,0,0-1.341-.311,6.913,6.913,0,0,0-1.167.1,5.171,5.171,0,0,0-1.05.285l.009.009a6.328,6.328,0,0,0-.25.9,4.558,4.558,0,0,0-.08.868,5.282,5.282,0,0,0,.071.944h-1.817V64.035h-1.06v5.611h10.118Zm-4.088,4.418h-2.076a4.129,4.129,0,0,1-.089-.944,3.1,3.1,0,0,1,.125-.837,5.929,5.929,0,0,1,1.229-.124,4.345,4.345,0,0,1,.81.062Z" transform="translate(325.782 -63.171)" fill="#aeaeb2"/>
      <rect id="Rectangle_7481" data-name="Rectangle 7481" width="1.06" height="5.611" transform="translate(23.433 0.864)" fill="#aeaeb2"/>
      <path id="Path_10071" data-name="Path 10071" d="M-284.027,65.22a.469.469,0,0,0,.263.107.461.461,0,0,0,.254-.107,1.116,1.116,0,0,0,.254-.258.484.484,0,0,0,.107-.259.607.607,0,0,0-.218-.4.652.652,0,0,0-.4-.227.666.666,0,0,0-.4.227.6.6,0,0,0-.223.4.468.468,0,0,0,.107.263A1.158,1.158,0,0,0-284.027,65.22Z" transform="translate(313.949 -63.189)" fill="#aeaeb2"/>
      <path id="Path_10072" data-name="Path 10072" d="M-281.138,66.41h-1.06V69.4h-4.5a3.063,3.063,0,0,1-.134-1.007,4.04,4.04,0,0,1,.223-1.229L-287.622,67a5.205,5.205,0,0,0-.268,1.692,2.5,2.5,0,0,0,.33,1.461,1.265,1.265,0,0,0,1.087.445h5.335Z" transform="translate(315.349 -64.121)" fill="#aeaeb2"/>
      <path id="Path_10073" data-name="Path 10073" d="M-281.548,65.22a.465.465,0,0,0,.262.107.461.461,0,0,0,.254-.107,1.115,1.115,0,0,0,.254-.258.484.484,0,0,0,.107-.259.606.606,0,0,0-.218-.4.654.654,0,0,0-.4-.227.67.67,0,0,0-.4.227.6.6,0,0,0-.222.4.463.463,0,0,0,.107.263A1.133,1.133,0,0,0-281.548,65.22Z" transform="translate(312.958 -63.189)" fill="#aeaeb2"/>
      <path id="Path_10074" data-name="Path 10074" d="M-272.1,69.646h5.086V66.707a1.235,1.235,0,0,0-.406-1.043,2.237,2.237,0,0,0-1.34-.311,6.912,6.912,0,0,0-1.167.1,5.171,5.171,0,0,0-1.05.285l.008.009a6.325,6.325,0,0,0-.249.9,4.512,4.512,0,0,0-.08.868,5.279,5.279,0,0,0,.071.944h-1.817V64.035h-1.06v5.611h2Zm1.986-2.975a5.93,5.93,0,0,1,1.229-.124,4.349,4.349,0,0,1,.81.062v1.844h-2.076a4.1,4.1,0,0,1-.089-.944A3.1,3.1,0,0,1-270.115,66.671Z" transform="translate(309.838 -63.171)" fill="#aeaeb2"/>
      <path id="Path_10075" data-name="Path 10075" d="M-250.181,63.736a.467.467,0,0,0,.263.107.458.458,0,0,0,.254-.107,1.115,1.115,0,0,0,.254-.258.477.477,0,0,0,.107-.259.6.6,0,0,0-.218-.4.651.651,0,0,0-.4-.227.667.667,0,0,0-.4.227.6.6,0,0,0-.223.4.466.466,0,0,0,.106.263A1.158,1.158,0,0,0-250.181,63.736Z" transform="translate(300.418 -62.596)" fill="#aeaeb2"/>
      <path id="Path_10076" data-name="Path 10076" d="M-248.611,69.646h2.441V64.035h-1.06v4.418H-249.2V64.035h-1.061v4.418h-1.264l-.445-1.211a2.891,2.891,0,0,0-1-1.447,3.089,3.089,0,0,0-1.777-.441,11.011,11.011,0,0,0-1.14.071l.16,1.175a7.783,7.783,0,0,1,.953-.053,2.576,2.576,0,0,1,1.038.173,1.387,1.387,0,0,1,.627.574,1.618,1.618,0,0,1-1.567,1.158h-2.12a13.069,13.069,0,0,0-.694-2.066,1.852,1.852,0,0,0-.748-.882,2.729,2.729,0,0,0-1.256-.232,4.6,4.6,0,0,0-1.158.134l.294,1.166a3.685,3.685,0,0,1,.864-.107,1.246,1.246,0,0,1,.672.156,1.247,1.247,0,0,1,.427.57,8.513,8.513,0,0,1,.4,1.26h-2.8v1.193h5.923a3.05,3.05,0,0,0,1.3-.271,2.522,2.522,0,0,0,.984-.824l.223.6a.784.784,0,0,0,.267.378.756.756,0,0,0,.446.12h3.037Z" transform="translate(304.517 -63.171)" fill="#aeaeb2"/>
      <path id="Path_10077" data-name="Path 10077" d="M-220.754,69.964v-.009h4.685V68.761h-2.146a.852.852,0,0,1-.507-.12.456.456,0,0,1-.152-.406v-1.3a4.655,4.655,0,0,1,.864-.062,6.436,6.436,0,0,1,1.372.17l.169-1.131a5.8,5.8,0,0,0-1.657-.241,2.54,2.54,0,0,0-1.113.2,1.117,1.117,0,0,0-.557.645,3.877,3.877,0,0,0-.164,1.278,4.986,4.986,0,0,0,.08.971h-1.568l-.463-1.835a3,3,0,0,0-.61-1.269A2.232,2.232,0,0,0-223.612,65a6.734,6.734,0,0,0-1.8-.2l-.062,1.158a5.417,5.417,0,0,1,1.354.138,1.677,1.677,0,0,1,.8.436,1.815,1.815,0,0,1,.419.806l.356,1.416h-1.024a4,4,0,0,0-.156-1.193.789.789,0,0,0-.477-.5,3.29,3.29,0,0,0-1.06-.125,3.129,3.129,0,0,0-1.028.125.776.776,0,0,0-.468.5,4.149,4.149,0,0,0-.151,1.189h-1.176a13.065,13.065,0,0,0-.694-2.066,1.853,1.853,0,0,0-.749-.882,2.726,2.726,0,0,0-1.256-.232,4.611,4.611,0,0,0-1.158.134l.294,1.166a3.683,3.683,0,0,1,.864-.107,1.245,1.245,0,0,1,.672.156,1.247,1.247,0,0,1,.428.57,8.58,8.58,0,0,1,.4,1.261h-2.8v1.193h10.127v.009Zm-3.749-1.2h-1.479v-.65a.279.279,0,0,1,.089-.232.456.456,0,0,1,.285-.071h1.1Z" transform="translate(293.039 -63.48)" fill="#aeaeb2"/>
      <path id="Path_10078" data-name="Path 10078" d="M-332.616,80.043l-1.02,3.683h.878l.194-.708h1.243l.2.708h.878l-1.019-3.683Zm.235,2.322.412-1.491h.053l.412,1.491Z" transform="translate(333.636 -69.571)" fill="#aeaeb2"/>
      <path id="Path_10079" data-name="Path 10079" d="M-325.114,81.564h-1.214V80.043h-.878v3.683h.878v-1.5h1.214v1.5h.878V80.043h-.878Z" transform="translate(331.065 -69.571)" fill="#aeaeb2"/>
      <path id="Path_10080" data-name="Path 10080" d="M-318.4,80.2a2.478,2.478,0,0,0-.993-.153h-1.479v3.683h1.479a2.465,2.465,0,0,0,.993-.154.868.868,0,0,0,.466-.536,3.738,3.738,0,0,0,.133-1.149,3.77,3.77,0,0,0-.133-1.152A.874.874,0,0,0-318.4,80.2Zm-.345,2.428a.4.4,0,0,1-.1.315.565.565,0,0,1-.36.085H-320v-2.28h.789a.564.564,0,0,1,.36.086.4.4,0,0,1,.1.315Z" transform="translate(328.534 -69.571)" fill="#aeaeb2"/>
      <path id="Path_10081" data-name="Path 10081" d="M-311.47,83.726h.878V82.312h1.09v-.66h-1.09v-.884h1.22l.106-.725h-2.2Z" transform="translate(324.775 -69.571)" fill="#aeaeb2"/>
      <path id="Path_10082" data-name="Path 10082" d="M-304.542,80.061a2.378,2.378,0,0,0-1-.165,2.371,2.371,0,0,0-1,.165.943.943,0,0,0-.483.574,3.835,3.835,0,0,0-.142,1.193,3.806,3.806,0,0,0,.142,1.19.943.943,0,0,0,.483.571,2.371,2.371,0,0,0,1,.165,2.378,2.378,0,0,0,1-.165.945.945,0,0,0,.483-.571,3.807,3.807,0,0,0,.142-1.19,3.836,3.836,0,0,0-.142-1.193A.944.944,0,0,0-304.542,80.061Zm-.319,2.575a.347.347,0,0,1-.106.289.636.636,0,0,1-.377.082h-.884V81.015a.347.347,0,0,1,.106-.289.641.641,0,0,1,.378-.083h.884Z" transform="translate(323.056 -69.512)" fill="#aeaeb2"/>
      <path id="Path_10083" data-name="Path 10083" d="M-297.9,82.014a1.719,1.719,0,0,0,.112-.669,1.969,1.969,0,0,0-.121-.759.787.787,0,0,0-.383-.413,1.62,1.62,0,0,0-.71-.13h-1.591v3.683h.878V82.541h.583l.56,1.185h.954l-.63-1.32A.787.787,0,0,0-297.9,82.014Zm-.807-.38a.229.229,0,0,1-.071.194.431.431,0,0,1-.247.053h-.69V80.768h.69a.427.427,0,0,1,.247.053.229.229,0,0,1,.071.194Z" transform="translate(320.427 -69.571)" fill="#aeaeb2"/>
      <path id="Path_10084" data-name="Path 10084" d="M-291.552,83.726h.878V82.312h1.09v-.66h-1.09v-.884h1.22l.106-.725h-2.2Z" transform="translate(316.812 -69.571)" fill="#aeaeb2"/>
      <rect id="Rectangle_7482" data-name="Rectangle 7482" width="0.878" height="3.683" transform="translate(27.971 10.472)" fill="#aeaeb2"/>
      <path id="Path_10085" data-name="Path 10085" d="M-281.971,82.241h-.035a.692.692,0,0,0-.035-.173,1.245,1.245,0,0,0-.112-.221l-1.126-1.8h-.86v3.683h.878v-2.2h.035a.628.628,0,0,0,.035.177,1.111,1.111,0,0,0,.118.218l1.119,1.8h.861V80.043h-.878Z" transform="translate(313.849 -69.571)" fill="#aeaeb2"/>
      <path id="Path_10086" data-name="Path 10086" d="M-277.2,80.043l-1.019,3.683h.878l.2-.708h1.243l.194.708h.878l-1.02-3.683Zm.236,2.322.412-1.491h.053l.412,1.491Z" transform="translate(311.483 -69.571)" fill="#aeaeb2"/>
      <path id="Path_10087" data-name="Path 10087" d="M-269.572,82.241h-.035a.691.691,0,0,0-.035-.173,1.245,1.245,0,0,0-.112-.221l-1.126-1.8h-.86v3.683h.878v-2.2h.035a.627.627,0,0,0,.035.177,1.111,1.111,0,0,0,.118.218l1.119,1.8h.861V80.043h-.878Z" transform="translate(308.893 -69.571)" fill="#aeaeb2"/>
      <path id="Path_10088" data-name="Path 10088" d="M-263.923,83.013a2.648,2.648,0,0,1-.583-.065V81.057a.384.384,0,0,1,.132-.342.905.905,0,0,1,.469-.088,3.315,3.315,0,0,1,.4.032,3.826,3.826,0,0,1,.427.08l.112-.707a1.787,1.787,0,0,0-.419-.1,3.827,3.827,0,0,0-.5-.038,2.143,2.143,0,0,0-.957.171.964.964,0,0,0-.472.58,3.889,3.889,0,0,0-.139,1.181,4.1,4.1,0,0,0,.13,1.176.949.949,0,0,0,.445.58,1.931,1.931,0,0,0,.9.171,4.193,4.193,0,0,0,.583-.035,2.161,2.161,0,0,0,.466-.118l-.076-.731A2.91,2.91,0,0,1-263.923,83.013Z" transform="translate(306.378 -69.512)" fill="#aeaeb2"/>
      <rect id="Rectangle_7483" data-name="Rectangle 7483" width="0.878" height="3.683" transform="translate(43.999 10.472)" fill="#aeaeb2"/>
      <path id="Path_10089" data-name="Path 10089" d="M-257.056,80.043l-1.019,3.683h.878l.194-.708h1.243l.194.708h.878l-1.02-3.683Zm.235,2.322.412-1.491h.053l.412,1.491Z" transform="translate(303.43 -69.571)" fill="#aeaeb2"/>
      <path id="Path_10090" data-name="Path 10090" d="M-250.768,80.043h-.878v3.683h2.116V83h-1.237Z" transform="translate(300.86 -69.571)" fill="#aeaeb2"/>
      <path id="Path_10091" data-name="Path 10091" d="M-242.263,81.593a2.427,2.427,0,0,0-.757-.164l-.542-.041v-.719a3.505,3.505,0,0,1,.5-.029q.277,0,.507.02a4.6,4.6,0,0,1,.513.08l.112-.7a5.936,5.936,0,0,0-1.291-.141,1.943,1.943,0,0,0-.76.121.776.776,0,0,0-.4.386,1.706,1.706,0,0,0-.127.725,1.312,1.312,0,0,0,.118.609.742.742,0,0,0,.392.334,2.738,2.738,0,0,0,.775.152l.542.047v.713a4.445,4.445,0,0,1-.571.035,4.15,4.15,0,0,1-1.178-.165l-.124.725a4.907,4.907,0,0,0,1.361.176,2.5,2.5,0,0,0,.849-.118.854.854,0,0,0,.465-.375,1.357,1.357,0,0,0,.148-.681,1.368,1.368,0,0,0-.124-.627A.8.8,0,0,0-242.263,81.593Z" transform="translate(298.026 -69.512)" fill="#aeaeb2"/>
      <path id="Path_10092" data-name="Path 10092" d="M-236.574,80.768l.106-.725h-2.387v3.683h2.38V83h-1.5v-.79h1.29v-.654h-1.29v-.79Z" transform="translate(295.746 -69.571)" fill="#aeaeb2"/>
      <path id="Path_10093" data-name="Path 10093" d="M-231.086,82.014a1.718,1.718,0,0,0,.112-.669,1.956,1.956,0,0,0-.121-.759.787.787,0,0,0-.383-.413,1.619,1.619,0,0,0-.71-.13h-1.591v3.683h.878V82.541h.583l.56,1.185h.954l-.63-1.32A.784.784,0,0,0-231.086,82.014Zm-.807-.38a.229.229,0,0,1-.071.194.43.43,0,0,1-.247.053h-.689V80.768h.689a.425.425,0,0,1,.247.053.229.229,0,0,1,.071.194Z" transform="translate(293.717 -69.571)" fill="#aeaeb2"/>
      <path id="Path_10094" data-name="Path 10094" d="M-226.816,82.895h-.053l-.731-2.852h-.878l.96,3.683h1.35l.96-3.683h-.878Z" transform="translate(291.598 -69.571)" fill="#aeaeb2"/>
      <rect id="Rectangle_7484" data-name="Rectangle 7484" width="0.878" height="3.683" transform="translate(66.844 10.472)" fill="#aeaeb2"/>
      <path id="Path_10095" data-name="Path 10095" d="M-218.117,83.013a2.65,2.65,0,0,1-.583-.065V81.057a.383.383,0,0,1,.133-.342.9.9,0,0,1,.468-.088,3.306,3.306,0,0,1,.4.032,3.8,3.8,0,0,1,.427.08l.112-.707a1.772,1.772,0,0,0-.418-.1,3.842,3.842,0,0,0-.5-.038,2.145,2.145,0,0,0-.957.171.964.964,0,0,0-.471.58,3.871,3.871,0,0,0-.139,1.181,4.1,4.1,0,0,0,.13,1.176.949.949,0,0,0,.445.58,1.932,1.932,0,0,0,.9.171,4.209,4.209,0,0,0,.583-.035,2.17,2.17,0,0,0,.466-.118l-.077-.731A2.91,2.91,0,0,1-218.117,83.013Z" transform="translate(288.066 -69.512)" fill="#aeaeb2"/>
      <path id="Path_10096" data-name="Path 10096" d="M-212.248,80.768l.106-.725h-2.387v3.683h2.381V83h-1.5v-.79h1.29v-.654h-1.29v-.79Z" transform="translate(286.022 -69.571)" fill="#aeaeb2"/>
      <path id="Path_10097" data-name="Path 10097" d="M-207.088,81.955a.8.8,0,0,0-.4-.363,2.432,2.432,0,0,0-.758-.164l-.542-.041v-.719a3.511,3.511,0,0,1,.5-.029q.277,0,.507.02a4.567,4.567,0,0,1,.512.08l.112-.7a5.931,5.931,0,0,0-1.29-.141,1.949,1.949,0,0,0-.76.121.773.773,0,0,0-.4.386,1.706,1.706,0,0,0-.127.725,1.3,1.3,0,0,0,.118.609.74.74,0,0,0,.392.334,2.728,2.728,0,0,0,.775.152l.542.047v.713a4.461,4.461,0,0,1-.572.035,4.153,4.153,0,0,1-1.178-.165l-.124.725a4.914,4.914,0,0,0,1.361.176,2.5,2.5,0,0,0,.848-.118.855.855,0,0,0,.466-.375,1.357,1.357,0,0,0,.147-.681A1.36,1.36,0,0,0-207.088,81.955Z" transform="translate(284.126 -69.512)" fill="#aeaeb2"/>
    </g>
  </g>
</svg>
